# xmcd CD database file
#
# Track frame offsets:
#	150
#	16895
#	37850
#	53247
#	70192
#	86614
#	95728
#	114659
#	128328
#	145906
#	160133
#	176020
#
# Disc length: 2488 seconds
#
# Revision: 0
# Processed by: cddbd v1.5.2PL0 Copyright (c) Steve Scherf et al.
# Submitted via: CDex 1.51
#
DISCID=9709b60c
DTITLE=Ernst Molden - Foan
DYEAR=2008
DGENRE=Blues
TTITLE0=Lindschi
TTITLE1=Willi
TTITLE2=I steh ibahaupt ned mea auf di
TTITLE3=I siech wos finstas
TTITLE4=Summazeit
TTITLE5=Wossaproblem
TTITLE6=Numma zum waanan
TTITLE7=I sauf
TTITLE8=Foan
TTITLE9=Vü föd ned
TTITLE10=Monika
TTITLE11=Wohnan duast bei mir
EXTD=YEAR: 2008
EXTT0=
EXTT1=
EXTT2=
EXTT3=
EXTT4=
EXTT5=
EXTT6=
EXTT7=
EXTT8=
EXTT9=
EXTT10=
EXTT11=
PLAYORDER=
